<svg width="87" height="87" viewBox="0 0 87 87" fill="none" xmlns="http://www.w3.org/2000/svg">
<rect width="27" height="11" transform="translate(4 63)" fill="#A200FF"/>
<rect width="30" height="5" transform="translate(2 69.5)" fill="#A200FF"/>
<rect width="15" height="12" transform="translate(14 72.5)" fill="#A200FF"/>
<rect width="15.3757" height="12" transform="translate(1.60254 73.0485) rotate(-35)" fill="#A200FF"/>
<rect width="7.29244" height="11.8678" transform="translate(11.1057 71.5) rotate(15)" fill="#A200FF"/>
<rect width="27" height="10" transform="matrix(-1 0 0 -1 83 22)" fill="#A200FF"/>
<rect width="30" height="8" transform="matrix(-1 0 0 -1 85 16.5)" fill="#A200FF"/>
<rect width="15" height="11.4861" transform="matrix(-1 0 0 -1 73 13.3219)" fill="#A200FF"/>
<rect width="15.1622" height="11.6577" transform="matrix(-0.642788 0.766044 -0.79182 -0.610754 84.9768 8.62)" fill="#A200FF"/>
<rect width="7.27194" height="11.3943" transform="matrix(-0.968649 -0.248434 0.269574 -0.96298 75.8943 14.2791)" fill="#A200FF"/>
<path d="M3.57405 6.55147C2.54639 8.15006 2 10.0104 2 11.9108V31.4292C2 34.7765 6.0471 36.4529 8.41405 34.086C9.85339 32.6466 12.1772 32.6152 13.6549 34.0151L15.9425 36.1824C18.4792 38.5856 22.4683 38.5317 24.9392 36.0608C27.4581 33.5419 31.5419 33.5419 34.0608 36.0608L34.1728 36.1728C36.6145 38.6145 40.5245 38.7647 43.1463 36.5174L46.5142 33.6306C47.8943 32.4478 49.9675 32.5885 51.1751 33.947C53.2115 36.2379 57 34.7975 57 31.7323V23.5C57 15.975 59.0451 8.59147 62.9167 2.13883L63 2H11.9108C8.53853 2 5.39765 3.71477 3.57405 6.55147Z" fill="white"/>
<path d="M15 84.5L18.0742 83.8528C22.1556 82.9936 25.6635 80.4057 27.6891 76.7597C28.8767 74.6219 29.5 72.2166 29.5 69.7711V61.5V54.1462C29.5 50.7537 33.6835 49.1484 35.9529 51.6699C37.3479 53.2199 39.7471 53.3122 41.2571 51.8742L44.4201 48.8618C46.883 46.5162 50.8263 46.7828 52.951 49.4387C55.111 52.1387 59.1382 52.3618 61.5832 49.9168L62.321 49.179C64.8855 46.6145 69.0596 46.668 71.5575 49.2974L73.8761 51.738C75.2778 53.2135 77.6493 53.1479 78.9673 51.5973C81.0305 49.1699 85 50.629 85 53.8148V71.4015C85 72.7851 84.7097 74.1533 84.1477 75.4176L82.2889 79.6001C81.4592 81.4667 79.9667 82.9592 78.1001 83.7889C77.0451 84.2577 75.9035 84.5 74.749 84.5H15Z" fill="white"/>
<path d="M63 2L62.9167 2.13883C59.0451 8.59147 57 15.975 57 23.5M63 2H71.7443C74.8188 2 77.7977 3.06873 80.1711 5.02322L81.4113 6.04463C83.6836 7.91592 85 10.7053 85 13.649C85 19.0895 80.5895 23.5 75.149 23.5H57M63 2H11.9108C8.53853 2 5.39765 3.71477 3.57405 6.55147C2.54639 8.15006 2 10.0104 2 11.9108V31.4292C2 34.7765 6.0471 36.4529 8.41405 34.086C9.85339 32.6466 12.1772 32.6152 13.6549 34.0151L15.9425 36.1824C18.4792 38.5856 22.4683 38.5317 24.9392 36.0608C27.4581 33.5419 31.5419 33.5419 34.0608 36.0608L34.1728 36.1728C36.6145 38.6145 40.5245 38.7647 43.1463 36.5174L46.5142 33.6306C47.8943 32.4478 49.9675 32.5885 51.1751 33.947C53.2115 36.2379 57 34.7975 57 31.7323V23.5M15 84.5L13.7029 84.1294C10.0214 83.0775 6.83386 80.7508 4.71 77.565L3.547 75.8205C2.53828 74.3074 2 72.5296 2 70.7111C2 65.624 6.12395 61.5 11.2111 61.5H29.5M15 84.5L18.0742 83.8528C22.1556 82.9936 25.6635 80.4057 27.6891 76.7597C28.8767 74.6219 29.5 72.2166 29.5 69.7711V61.5M15 84.5H74.749C75.9035 84.5 77.0451 84.2577 78.1001 83.7889C79.9667 82.9592 81.4592 81.4667 82.2889 79.6001L84.1477 75.4176C84.7097 74.1533 85 72.7851 85 71.4015V53.8148C85 50.629 81.0305 49.1699 78.9673 51.5973C77.6493 53.1479 75.2778 53.2135 73.8761 51.738L71.5575 49.2974C69.0596 46.668 64.8855 46.6145 62.321 49.179L61.5832 49.9168C59.1382 52.3618 55.111 52.1387 52.951 49.4387C50.8263 46.7828 46.883 46.5162 44.4201 48.8618L41.2571 51.8742C39.7471 53.3122 37.3479 53.2199 35.9529 51.6699C33.6835 49.1484 29.5 50.7537 29.5 54.1462V61.5" stroke="black" stroke-width="4"/>
<path d="M10.5 12.5H48.5M10.5 21.5H48.5M38.5 64H77M38.5 73H77" stroke="black" stroke-width="4"/>
</svg>
